<svg width="1000" height="1000" viewBox="0 0 1000 1000" fill="none" xmlns="http://www.w3.org/2000/svg">
<rect width="1000" height="1000" fill="black"/>
<path d="M761.862 379.663C755.262 240.763 640.512 129.687 500 129.687C359.488 129.687 244.738 240.763 238.138 379.663L237.5 382.812V617.187C237.5 761.937 355.288 879.687 500 879.687C644.712 879.687 762.5 761.937 762.5 617.187V382.812L761.862 379.663ZM500 710.937C416.75 710.937 345.05 661.287 312.5 590.112V575.563C360.163 624.313 426.575 654.687 500 654.687C573.425 654.687 639.837 624.275 687.5 575.563V590.112C654.95 661.287 583.25 710.937 500 710.937ZM500 204.687C603.387 204.687 687.5 288.8 687.5 392.187C687.5 495.575 603.387 579.687 500 579.687C396.613 579.687 312.5 495.575 312.5 392.187C312.5 288.8 396.613 204.687 500 204.687ZM500 804.687C414.838 804.687 343.55 747.238 320.825 669.35C365.375 717.838 429.125 748.437 500 748.437C570.875 748.437 634.625 717.838 679.175 669.35C656.45 747.238 585.162 804.687 500 804.687Z" fill="white"/>
</svg>
